<?xml version="1.0" encoding="utf-8"?>
<!-- Generator: Adobe Illustrator 22.1.0, SVG Export Plug-In . SVG Version: 6.00 Build 0)  -->
<svg version="1.1" id="Warstwa_1" xmlns="http://www.w3.org/2000/svg" xmlns:xlink="http://www.w3.org/1999/xlink" x="0px" y="0px"
	 viewBox="0 0 423.7 210.5" style="enable-background:new 0 0 423.7 210.5;" xml:space="preserve">
<g>
	<path d="M400.7,124c-1-0.8-2.2-1.4-3.4-1.7c-1.2-0.3-3.1-0.5-5.7-0.5h-37.9c-0.7,2.4-1.5,5.5-1.8,6.6l-9.1,35.2
		c-0.5,2.1-1.7,6.8-2.2,8.6l19.6,0c0.6-2.7,1.3-5.4,1.6-6.7l2.9-11.2h20.6c3.2,0,5.5-0.1,6.9-0.4c1.4-0.3,2.7-0.9,3.9-1.8
		c2.4-1.8,4-4.7,5-8.8l2.3-8.9c0.4-1.6,0.6-2.7,0.6-3.5C403.9,128.1,402.9,125.8,400.7,124 M384,134.1l-1.9,7.3
		c-0.5,2-1.1,3.2-1.9,3.8c-0.8,0.6-2.2,0.8-4.3,0.8h-9.1l4.1-15.9h9.4c1.5,0,2.5,0.2,3.1,0.5c0.6,0.4,0.8,1,0.8,2
		C384.2,133.1,384.1,133.6,384,134.1"/>
	<path d="M297.4,149.4l15.9-27.6h25.5c-0.7,2.7-1.7,6.5-2.2,8.6c0,0-10.2,39.5-10.8,41.9h-19.6c1-3.7,1.8-6.5,2.3-8.6l8.1-31.2
		l-23,39.8h-13.8l-2.6-39.7c0,0-9.2,36.1-10.2,39.7h-8.5c0.8-3.1,1.8-6.5,2.4-8.6l9.1-35.2c0.3-1.2,0.9-3.3,1.7-6.6h23.8
		L297.4,149.4z"/>
	<path d="M257,121.8c-0.9,3-12.3,47.4-13.2,50.5h-20.1c1-3.8,13.4-48.7,13.8-50.5H257z"/>
	<polyline points="217.2,163.9 215.1,172.3 170.1,172.3 183.5,121.8 202.8,121.8 192,163.9 204.6,163.9 	"/>
	<path d="M132.9,134.9l-6.3,24.4c-0.3,1.4-0.5,2.2-0.5,2.4c0,0.9,0.4,1.5,1.3,1.9c0.6,0.2,1.6,0.3,3,0.3h7.3c1.7,0,2.7-0.2,3.1-0.6
		c0.4-0.4,0.9-1.7,1.4-3.8l6.4-24.5c0.2-0.6,0.3-1,0.3-1.3c0.2-0.6,0.2-1.1,0.2-1.5c0-1.4-1.2-2.1-3.7-2.1h-7.1
		c-1.8,0-3.1,0.3-3.7,0.9C134.1,131.6,133.4,132.9,132.9,134.9 M130.5,121.8h24.6c2.5,0,4.5,0.2,5.9,0.5c1.4,0.3,2.6,0.9,3.6,1.8
		c2.5,2,3.8,4.7,3.8,8c0,1.2-0.2,2.7-0.7,4.4l-6.5,24.9c-0.5,2.1-1.2,3.8-1.8,4.9c-0.6,1.2-1.6,2.2-2.7,3.1c-1.3,1-2.8,1.8-4.5,2.2
		c-1.7,0.4-4,0.7-6.7,0.7l-25.8,0c-2.9,0-4.9-0.1-6.2-0.4c-1.2-0.3-2.4-0.9-3.4-1.7c-2.3-2-3.4-4.5-3.4-7.6c0-1.1,0.3-2.7,0.9-4.8
		l6.4-24.8c0.6-2.4,1.4-4.3,2.3-5.7c0.9-1.4,2.1-2.4,3.5-3.2C122.4,122.5,126,121.8,130.5,121.8"/>
	<path d="M421,122.2c0,1.9-0.7,3.5-2,4.8c-1.3,1.3-3,2-4.8,2c-1.9,0-3.5-0.7-4.8-2c-1.3-1.3-2-3-2-4.8c0-1.9,0.7-3.5,2-4.8
		c1.3-1.3,2.9-2,4.8-2c1.9,0,3.5,0.7,4.8,2C420.3,118.7,421,120.3,421,122.2 M419.8,122.2c0-1.6-0.6-2.9-1.7-4
		c-1.1-1.1-2.4-1.6-4-1.6c-1.6,0-2.9,0.5-4,1.6c-1.1,1.1-1.6,2.4-1.6,4c0,1.6,0.5,2.9,1.6,4c1.1,1.1,2.4,1.7,4,1.7
		c1.6,0,2.9-0.6,4-1.7C419.3,125.1,419.8,123.8,419.8,122.2 M417.5,126.1h-1.4c-0.2-0.4-0.3-0.9-0.3-1.7c0-1-0.5-1.5-1.5-1.5h-1.7
		v3.2h-1.2v-7.9h2.9c1.9,0,2.9,0.8,2.9,2.3c0,0.9-0.3,1.5-0.9,1.9c0.4,0.4,0.7,1.1,0.7,1.9c0,0.6,0.1,1.2,0.4,1.6L417.5,126.1z
		 M416,120.6c0-0.8-0.5-1.1-1.6-1.1h-1.8v2.3h1.8C415.5,121.7,416,121.3,416,120.6"/>
	<polygon points="76.1,91.9 91.1,106.8 106,121.8 100.6,142.3 95.1,162.7 74.6,168.2 54.2,173.7 39.2,158.7 24.2,143.7 29.7,123.3 
		35.2,102.8 55.6,97.3 	"/>
	<polygon points="135.6,32.4 150.5,47.4 165.5,62.4 160,82.8 154.5,103.3 134.1,108.7 113.6,114.2 98.6,99.3 83.7,84.3 89.2,63.8 
		94.6,43.4 115.1,37.9 	"/>
	<path d="M18.9,76L4.8,61.9L10,42.6l5.2-19.3l19.3-5.2l19.3-5.2L67.9,27L82,41.2l-5.2,19.3l-5.2,19.3l-19.3,5.2l-19.3,5.2L18.9,76z
		 M54.4,10.6l-20.5,5.5l-20.5,5.5L8,42L2.5,62.5l15,15l15,15l20.5-5.5l20.4-5.5L78.9,61l5.5-20.5l-15-15L54.4,10.6z"/>
	<path d="M64.9,187l-0.6,2.4h-7.7c-0.6,0-1,0.2-1.1,0.6l-0.3,0.9c0,0.1,0,0.1,0,0.2c0,0.3,0.3,0.4,0.9,0.4h4.2c2,0,3,0.7,3,2
		c0,0.3,0,0.5-0.1,0.8l-1,3.8c-0.6,2.3-2,3.5-4.2,3.5H47.1l0.6-2.4h7.8c0.6,0,0.9-0.2,1-0.6l0.3-1c0-0.1,0-0.2,0-0.3
		c0-0.3-0.3-0.4-0.8-0.4h-4.8c-1.6,0-2.4-0.6-2.4-1.7c0-0.4,0.1-0.8,0.2-1.3l0.9-3.5c0.2-1,0.7-1.8,1.3-2.4c0.7-0.7,1.5-1,2.5-1
		H64.9z"/>
	<path d="M90,190.5l-0.6,2.6c-0.6,2.2-2,3.4-4.3,3.4H79l-1.3,5.2h-5.6l3.7-14.7h11.5c1.9,0,2.9,0.7,2.9,2.2
		C90.2,189.5,90.1,189.9,90,190.5 M84.4,190.6c0.1-0.3,0.1-0.5,0.1-0.6c0-0.4-0.2-0.6-0.7-0.6h-3l-1.1,4.6h3c0.6,0,1-0.4,1.2-1.1
		L84.4,190.6z"/>
	<path d="M114.6,191l-1.6,6.5c-0.7,2.7-2.2,4.1-4.6,4.1h-8.5c-1.9,0-2.8-0.8-2.8-2.5c0-0.5,0.1-1,0.2-1.5l1.6-6.5
		c0.7-2.7,2.2-4.1,4.6-4.1h8.5c1.9,0,2.8,0.8,2.8,2.5C114.8,189.9,114.7,190.4,114.6,191 M109.2,190.3c0-0.1,0-0.2,0-0.3
		c0-0.4-0.3-0.6-0.9-0.6h-2.4c-0.7,0-1.2,0.3-1.3,0.9l-2,8c0,0.1,0,0.2,0,0.3c0,0.4,0.3,0.6,0.9,0.6h2.4c0.7,0,1.2-0.3,1.3-0.9
		L109.2,190.3z"/>
	<path d="M140.7,190.2L140,193c-0.4,1.5-1.3,2.2-2.8,2.2l1.5,6.4h-6.1l-1.1-6.4h-1.7l-1.6,6.4h-5.6l3.7-14.7h11.6c2,0,3,0.7,3,2
		C140.9,189.3,140.8,189.7,140.7,190.2 M135.1,190.2c0-0.2,0.1-0.3,0.1-0.4c0-0.3-0.2-0.4-0.7-0.4h-3.2l-0.8,3.4h3.2
		c0.5,0,0.9-0.3,1-0.8L135.1,190.2z"/>
	<polygon points="165.6,187 165,189.4 160.3,189.4 157.3,201.6 151.7,201.6 154.8,189.4 150.2,189.4 150.8,187 	"/>
	<polygon points="207.2,187 203.5,201.6 196.3,201.6 193.3,189.5 193.3,189.5 190.3,201.6 187.8,201.6 191.5,187 198.8,187 
		201.7,198.9 201.8,198.9 204.8,187 	"/>
	<path d="M233,187l-2.6,10.3c-0.4,1.6-1,2.7-1.7,3.4c-0.7,0.7-1.8,1-3.2,1h-7.9c-2,0-3-0.9-3-2.7c0-0.5,0.1-1,0.2-1.6l2.6-10.3h5.6
		l-2.7,10.9c0,0.2-0.1,0.4-0.1,0.5c0,0.6,0.3,0.8,1,0.8h4.9c0.5,0,0.9-0.1,1.1-0.2c0.2-0.2,0.4-0.5,0.5-1l2.8-11H233z"/>
	<polygon points="255.7,187 255.1,189.4 250.5,189.4 247.4,201.6 241.8,201.6 244.9,189.4 240.3,189.4 240.9,187 	"/>
	<path d="M278.9,190.2l-0.7,2.8c-0.4,1.5-1.3,2.2-2.8,2.2l1.5,6.4h-6.1l-1.1-6.4H268l-1.6,6.4h-5.6l3.7-14.7h11.6c2,0,3,0.7,3,2
		C279.1,189.3,279,189.7,278.9,190.2 M273.3,190.2c0-0.2,0.1-0.3,0.1-0.4c0-0.3-0.2-0.4-0.7-0.4h-3.2l-0.8,3.4h3.2
		c0.6,0,0.9-0.3,1-0.8L273.3,190.2z"/>
	<polygon points="296.2,187 292.6,201.6 287,201.6 290.7,187 	"/>
	<polygon points="321.5,187 320.8,189.4 316.2,189.4 313.2,201.6 307.6,201.6 310.6,189.4 306,189.4 306.6,187 	"/>
	<polygon points="336.7,187 333.1,201.6 327.5,201.6 331.1,187 	"/>
	<path d="M362.4,191l-1.6,6.5c-0.7,2.7-2.2,4.1-4.6,4.1h-8.5c-1.9,0-2.8-0.8-2.8-2.5c0-0.5,0.1-1,0.2-1.5l1.6-6.5
		c0.7-2.7,2.2-4.1,4.6-4.1h8.5c1.9,0,2.8,0.8,2.8,2.5C362.6,189.9,362.6,190.4,362.4,191 M357,190.3c0-0.1,0-0.2,0-0.3
		c0-0.4-0.3-0.6-0.9-0.6h-2.4c-0.7,0-1.2,0.3-1.3,0.9l-2,8c0,0.1,0,0.2,0,0.3c0,0.4,0.3,0.6,0.9,0.6h2.4c0.7,0,1.2-0.3,1.3-0.9
		L357,190.3z"/>
	<polygon points="389.4,187 385.8,201.6 378.6,201.6 375.6,189.5 375.5,189.5 372.5,201.6 370.1,201.6 373.7,187 381,187 384,198.9 
		384,198.9 387,187 	"/>
</g>
</svg>
